HIERARCHY
ROOT pelvis
{
  OFFSET 0 100 0
  CHANNELS 6 Xposition Yposition Zposition Zrotation Xrotation Yrotation
  JOINT pelvis_right_femur
  {
    OFFSET -10.78128 -3.44521 -0.5502486
    CHANNELS 3 Zrotation Xrotation Yrotation
    JOINT right_femur_tibia
    {
      OFFSET -0.8047443 -44.0398 -0.1307829
      CHANNELS 3 Zrotation Xrotation Yrotation
      JOINT right_tibia_foot
      {
        OFFSET 3.006224 -47.83518 -5
        CHANNELS 3 Zrotation Xrotation Yrotation
        End Site
        {
          OFFSET 0 -5 15
        }
      }
    }
  }
  JOINT pelvis_left_femur
  {
    OFFSET 10.78128 -3.44521 -0.5502486
    CHANNELS 3 Zrotation Xrotation Yrotation
    JOINT left_femur_tibia
    {
      OFFSET 0.8047443 -44.0398 -0.1307829
      CHANNELS 3 Zrotation Xrotation Yrotation
      JOINT left_tibia_foot
      {
        OFFSET -4.370144 -48.10324 -4.275266
        CHANNELS 3 Zrotation Xrotation Yrotation
        End Site
        {
          OFFSET 0 -5 15
        }
      }
    }
  }
  JOINT pelvis_spine1
  {
    OFFSET 0 6.468898 -3.129235
    CHANNELS 3 Zrotation Xrotation Yrotation
    JOINT spine1
    {
      OFFSET 0 23.15396 4.99043
      CHANNELS 3 Zrotation Xrotation Yrotation
      JOINT spine2
      {
        OFFSET 0 20.79997 -5.064912
        CHANNELS 3 Zrotation Xrotation Yrotation
        JOINT neck
        {
          OFFSET 0 14.38658 9.616178
          CHANNELS 3 Zrotation Xrotation Yrotation
          End Site
          {
            OFFSET 0 20 0
          }
        }
      }
      JOINT right_manubrium
      {
        OFFSET -5.722621 16.35077 3.967754
        CHANNELS 3 Zrotation Xrotation Yrotation
        JOINT right_clavicle
        {
          OFFSET -13.16364 1.694482 -4.693211
          CHANNELS 3 Zrotation Xrotation Yrotation
          JOINT right_humerus
          {
            OFFSET -28.5034 -0.3100689 -2.792744
            CHANNELS 3 Zrotation Xrotation Yrotation
            JOINT right_radius
            {
              OFFSET -25.15693 0.02248979 -1.271978
              CHANNELS 3 Zrotation Xrotation Yrotation
              End Site
              {
                OFFSET -15 0 0
              }
            }
          }
        }
      }
      JOINT left_manubrium
      {
        OFFSET 5.722621 16.35077 3.967754
        CHANNELS 3 Zrotation Xrotation Yrotation
        JOINT left_clavicle
        {
          OFFSET 13.16364 1.694482 -4.693211
          CHANNELS 3 Zrotation Xrotation Yrotation
          JOINT left_humerus
          {
            OFFSET 29.39168 -1.063119 -2.237045
            CHANNELS 3 Zrotation Xrotation Yrotation
            JOINT left_radius
            {
              OFFSET 24.59957 -0.9528479 0.9047498
              CHANNELS 3 Zrotation Xrotation Yrotation
              End Site
              {
                OFFSET 15 -0 -0
              }
            }
          }
        }
      }
    }
  }
}
MOTION
Frames: 23
Frame Time: 0.0416666666667
-465.3017 99.27523 2967.126 -0.4865867 -2.083696 -23.5309 3.288678 -28.66797 -1.205593 -0 4.46204 -0 -2.678037 5.51728 -4.792475 -5.286369 17.41785 -7.0784 -0 22.36503 -0 -3.774741 -19.68689 11.43419 -0.4415445 -2.474071 9.189017 1.602171 14.07194 -8.199789 0.7159034 19.55193 -1.390754 -2.31409 -18.52017 2.522329 -3.410465 -36.0405 12.55295 89.92303 23.99359 -9.301713 -0 0 31.64325 -17.61796 9.671596 9.14434 0.5384823 -19.64319 -7.168357 -91.07101 8.328379 37.62199 0 0 -7.947404 9.830676 13.7216 -4.884742
-468.4914 99.03162 2973.602 -1.05785 -1.748496 -23.39663 5.146903 -26.39597 0.8080664 -0 6.788961 -0 -2.330029 5.511835 -5.28047 -4.65947 17.02726 -6.846324 -0 30.98493 -0 -5.293851 -16.54417 10.98094 -0.4608031 -2.472503 9.188289 1.605697 14.0566 -8.205136 0.7154252 19.55394 -1.401123 -2.325093 -18.51766 2.523179 -3.401489 -36.05659 12.54921 89.91547 24.05608 -9.292214 -0 0 31.65429 -17.58412 9.63152 9.133678 0.5325241 -19.61028 -7.157541 -91.04666 8.317479 37.62492 0 0 -7.935992 9.86417 13.70577 -4.934573
-471.7349 99.54553 2980.135 -1.916623 -1.851621 -23.55264 6.609939 -22.36114 2.571476 -0 10.79433 -0 -2.492253 3.935944 -5.575851 -3.927721 14.87387 -6.942941 -0 40.91726 -0 -7.038949 -12.39271 10.90393 -0.4803437 -2.467483 9.181618 1.608067 14.04071 -8.210031 0.7197113 19.56163 -1.412489 -2.339667 -18.52369 2.530919 -3.400892 -36.06789 12.54239 89.91801 24.12345 -9.282314 -0 0 31.65198 -17.55568 9.587033 9.126986 0.5230453 -19.56739 -7.140326 -91.01491 8.315321 37.61616 0 0 -7.911528 9.902395 13.69327 -4.993759
-474.8617 100.6435 2986.442 -2.688633 -2.454417 -24.07215 7.234083 -17.19869 3.696342 -0 13.98086 -0 -2.777353 1.221674 -5.589904 -3.326493 10.65733 -7.065196 -0 50.74159 -0 -8.648754 -8.396135 11.22889 -0.4956337 -2.458424 9.168765 1.608133 14.02809 -8.213024 0.7292441 19.57565 -1.42163 -2.354275 -18.54002 2.546089 -3.411954 -36.06804 12.53296 89.93496 24.18357 -9.276991 -0 0 31.62976 -17.53972 9.545068 9.123435 0.511791 -19.52269 -7.119288 -90.98074 8.324692 37.59197 0 0 -7.876118 9.940941 13.68792 -5.054978
-477.7717 102.072 2992.339 -3.090474 -3.483711 -24.87242 6.959754 -11.46188 4.216864 -0 15.06963 -0 -3.035571 -1.926359 -5.254783 -2.932301 4.528352 -7.150973 -0 58.88495 -0 -9.675425 -5.713527 11.93296 -0.5043484 -2.44611 9.151077 1.605659 14.02066 -8.21351 0.7430672 19.5947 -1.426931 -2.366623 -18.56524 2.567184 -3.434103 -36.05579 12.52198 89.96538 24.22843 -9.277783 -0 0 31.58868 -17.53896 9.510856 9.122909 0.5003071 -19.48232 -7.097073 -90.94861 8.344942 37.55424 0 0 -7.833723 9.975316 13.69083 -5.110929
-480.4421 103.5629 2997.764 -2.998668 -4.583573 -25.73772 6.021272 -5.626709 4.219562 -0 14.2113 -0 -3.522308 -5.110606 -4.520242 -2.680479 -2.79902 -7.260209 -0 63.37733 -0 -9.775279 -4.714257 12.8372 -0.5070117 -2.432793 9.131151 1.601496 14.01788 -8.211966 0.7589836 19.61555 -1.429116 -2.37669 -18.59483 2.590894 -3.462724 -36.03622 12.51086 90.00247 24.25541 -9.28137 -0 0 31.53837 -17.55144 9.487412 9.127382 0.4893365 -19.44841 -7.075583 -90.92135 8.372215 37.51087 0 0 -7.7891 10.00099 13.70016 -5.154843
-482.9215 104.8049 3002.798 -2.541506 -5.330319 -26.49508 4.952508 -0.2789919 3.921953 -0 12.32098 -0 -4.174505 -7.893614 -3.599741 -2.314404 -10.10785 -7.068473 -0 62.63883 -0 -8.956034 -4.80149 13.88368 -0.5050465 -2.420777 9.111874 1.596744 14.01852 -8.209218 0.774552 19.63479 -1.42939 -2.384801 -18.62376 2.613596 -3.492375 -36.01527 12.50101 90.03876 24.26488 -9.284412 -0 0 31.48938 -17.57302 9.475854 9.137645 0.4795435 -19.42216 -7.056641 -90.90085 8.401673 37.47015 0 0 -7.74745 10.01516 13.71316 -5.182321
-485.2833 105.4902 3007.588 -2.132159 -5.610111 -27.14978 4.315045 4.312281 3.617397 -0 10.48125 -0 -4.597265 -10.14124 -2.847998 -1.469827 -16.33149 -6.228876 -0 56.55488 -0 -7.74321 -5.209244 15.3069 -0.499396 -2.411368 9.095541 1.592113 14.02195 -8.205856 0.7879228 19.65028 -1.428146 -2.390401 -18.64857 2.632622 -3.519284 -35.9959 12.49346 90.06994 24.25829 -9.286587 -0 0 31.44768 -17.59955 9.475748 9.151561 0.4718914 -19.40557 -7.042187 -90.88855 8.429381 37.43676 0 0 -7.713584 10.01773 13.72776 -5.192423
-487.5699 105.4499 3012.258 -2.083244 -5.502647 -27.78653 4.272383 8.364074 3.299667 -0 9.260634 -0 -4.762926 -12.37113 -2.331422 -0.1085459 -21.1311 -4.998565 -0 46.47682 -0 -6.716994 -5.637931 17.05834 -0.4906998 -2.40492 9.083279 1.587919 14.02782 -8.202212 0.7982203 19.66124 -1.425431 -2.392949 -18.66777 2.646772 -3.541729 -35.97889 12.48859 90.09458 24.23784 -9.288817 -0 0 31.41514 -17.62807 9.48567 9.166497 0.4670036 -19.39972 -7.033296 -90.88473 8.453199 37.41209 0 0 -7.690113 10.01023 13.74274 -5.186704
-489.8141 104.7447 3016.943 -2.300085 -5.003396 -28.43684 4.561732 11.96156 2.764557 -0 8.769847 -0 -4.950052 -14.89502 -1.799768 1.372626 -24.63707 -3.922016 -0 34.75906 -0 -5.999718 -6.025665 18.54856 -0.4798691 -2.401214 9.07498 1.584293 14.03548 -8.198533 0.8054989 19.66795 -1.421649 -2.392861 -18.68144 2.656214 -3.559436 -35.96458 12.48619 90.11271 24.20687 -9.29114 -0 0 31.39163 -17.65681 9.503414 9.181417 0.4646457 -19.4031 -7.029486 -90.88809 8.472687 37.39567 0 0 -7.676524 9.994812 13.75738 -5.168262
-492.0717 103.6223 3021.836 -2.495303 -4.186822 -29.09321 4.761524 14.87897 2.074904 -0 9.170061 -0 -5.131656 -17.16807 -1.082463 2.461686 -26.9122 -3.278007 -0 24.12445 -0 -5.404916 -6.259382 19.31062 -0.4679046 -2.399796 9.06984 1.581266 14.0441 -8.194999 0.8103239 19.67116 -1.417429 -2.391151 -18.69048 2.661851 -3.572915 -35.95327 12.4857 90.12504 24.16894 -9.292795 -0 0 31.37623 -17.68495 9.526696 9.196639 0.4640665 -19.41276 -7.029368 -90.89657 8.488429 37.38632 0 0 -7.670471 9.97353 13.77124 -5.14044
-494.4046 102.3982 3027.136 -2.479927 -3.403548 -29.76692 4.483619 17.02706 1.541358 -0 10.75096 -0 -5.069182 -18.19176 -0.2684711 2.707128 -27.8284 -3.235302 -0 16.74986 -0 -4.753494 -6.297555 19.46029 -0.4555679 -2.400303 9.06724 1.578853 14.05304 -8.191729 0.8131287 19.67147 -1.413216 -2.38855 -18.69561 2.664389 -3.582563 -35.94512 12.48669 90.1321 24.1268 -9.293225 -0 0 31.36814 -17.7119 9.553757 9.21238 0.4647085 -19.42646 -7.031878 -90.90862 8.50087 37.3831 0 0 -7.670113 9.947984 13.78401 -5.10583
-496.8495 101.3406 3032.953 -2.224916 -3.128324 -30.45833 3.519879 18.6159 1.378569 -0 13.86586 -0 -4.780359 -17.09162 0.3742905 1.815747 -27.30266 -4.060195 -0 13.51789 -0 -4.038405 -6.317533 19.48824 -0.4435572 -2.402583 9.06715 1.577136 14.06182 -8.188867 0.8138907 19.66906 -1.409209 -2.385229 -18.69679 2.6639 -3.588083 -35.94033 12.48901 90.13385 24.08301 -9.292485 -0 0 31.36731 -17.73629 9.582924 9.227767 0.4664738 -19.4432 -7.03671 -90.92336 8.50955 37.38576 0 0 -7.675071 9.91986 13.79502 -5.066762
-499.4049 100.6263 3039.236 -1.81483 -3.581946 -31.0729 1.991342 19.80087 1.534198 -0 18.85868 -0 -4.560994 -13.50711 0.6128794 -0.07725885 -25.49578 -5.757544 -0 13.69414 -0 -3.402824 -6.611911 19.76729 -0.4326339 -2.406501 9.069676 1.576225 14.06991 -8.186579 0.812476 19.66402 -1.405575 -2.38124 -18.69383 2.660312 -3.588995 -35.93915 12.49257 90.13007 24.04043 -9.290781 -0 0 31.37385 -17.75643 9.612322 9.241552 0.469358 -19.46216 -7.043695 -90.94 8.513731 37.3942 0 0 -7.685252 9.891065 13.80348 -5.025792
-502.037 100.385 3045.806 -1.371545 -4.540589 -31.42848 0.3085151 20.23498 1.794555 -0 25.86014 -0 -4.65913 -7.712782 0.4757058 -2.377762 -22.70824 -7.762988 -0 15.64058 -0 -2.846962 -7.299588 20.22236 -0.4234096 -2.411747 9.074605 1.576133 14.07687 -8.184959 0.8090159 19.65675 -1.402449 -2.376749 -18.68704 2.653921 -3.58538 -35.94141 12.49711 90.1212 24.00161 -9.288335 -0 0 31.38704 -17.77123 9.640148 9.252824 0.4732018 -19.48223 -7.052389 -90.95753 8.513249 37.40768 0 0 -7.699896 9.863442 13.80893 -4.985531
-504.6835 100.7225 3052.428 -1.030176 -5.571694 -31.36791 -1.026309 19.13569 1.977182 -0 34.59816 -0 -5.126415 -0.5599993 0.1704763 -4.399173 -19.19144 -9.307012 -0 17.89396 -0 -2.136726 -8.221489 20.51054 -0.4160881 -2.417852 9.081538 1.576739 14.08258 -8.183972 0.8038255 19.64788 -1.399719 -2.371711 -18.67711 2.645274 -3.577892 -35.94627 12.50235 90.1084 23.96819 -9.285883 -0 0 31.40517 -17.78034 9.665013 9.26062 0.4779004 -19.50278 -7.062415 -90.97515 8.508439 37.42477 0 0 -7.718132 9.838607 13.81137 -4.948247
-507.2576 101.6543 3058.859 -1.000421 -6.370199 -30.86464 -1.586004 15.74655 2.001588 -0 44.04963 -0 -5.860258 6.426991 -0.1808056 -5.646329 -15.053 -9.952978 -0 19.42089 -0 -1.095151 -9.137741 20.39601 -0.4104504 -2.42439 9.090182 1.577859 14.08728 -8.18349 0.7971668 19.63797 -1.397006 -2.365741 -18.66474 2.63481 -3.567304 -35.95245 12.5081 90.09302 23.9405 -9.28461 -0 0 31.42623 -17.7839 9.686267 9.263848 0.4835608 -19.52412 -7.073774 -90.99265 8.499729 37.44398 0 0 -7.73964 9.817614 13.81114 -4.915273
-509.6684 103.0059 3064.895 -1.470032 -6.859689 -30.0597 -1.246647 9.836242 1.865135 -0 51.93265 -0 -6.636103 11.2074 -0.6512555 -5.951892 -10.30919 -9.826971 -0 19.51573 -0 0.1533841 -9.980925 19.87647 -0.4061632 -2.431117 9.100353 1.579346 14.09126 -8.183381 0.789219 19.62733 -1.393987 -2.358519 -18.65038 2.622804 -3.554203 -35.95899 12.5143 90.07597 23.91811 -9.285312 -0 0 31.44889 -17.78237 9.703922 9.261996 0.4902901 -19.54673 -7.086555 -91.01014 8.487522 37.46438 0 0 -7.764305 9.800734 13.8086 -4.886888
-511.8655 104.3948 3070.439 -2.298079 -7.079424 -29.18246 -0.3901472 2.128041 1.545961 -0 55.25918 -0 -7.219815 12.42454 -1.364291 -5.595236 -5.120216 -9.478957 -0 18.04461 -0 1.200889 -10.99516 19.09634 -0.4030992 -2.437916 9.111722 1.581127 14.09457 -8.183589 0.7802456 19.61622 -1.390705 -2.350257 -18.63447 2.609611 -3.539092 -35.96573 12.52079 90.0577 23.90063 -9.287772 -0 0 31.47258 -17.77644 9.718178 9.255695 0.4978805 -19.5702 -7.10042 -91.0274 8.472413 37.48551 0 0 -7.79138 9.787688 13.80411 -4.862884
-513.8864 105.3927 3075.538 -2.996726 -7.030972 -28.39295 0.346953 -5.871824 0.9182246 -0 52.54409 -0 -7.531873 10.6613 -2.223293 -5.118169 0.02907099 -9.36627 -0 15.6151 -0 1.649711 -12.52561 18.19971 -0.4013107 -2.444629 9.123712 1.583143 14.09705 -8.1841 0.7706936 19.605 -1.387469 -2.341598 -18.61769 2.595832 -3.522654 -35.97278 12.52731 90.0387 23.88802 -9.291183 -0 0 31.49683 -17.76693 9.72907 9.246263 0.5058317 -19.59324 -7.114578 -91.04377 8.455322 37.50691 0 0 -7.819374 9.778143 13.79802 -4.843228
-515.839 105.7446 3080.34 -3.192578 -6.69233 -27.72759 0.6216095 -12.82149 -0.08156467 -0 45.14866 -0 -7.569429 7.778235 -2.958008 -4.887036 4.56405 -9.49673 -0 13.14319 -0 1.433549 -14.58223 17.25143 -0.4007774 -2.451004 9.135707 1.585299 14.09862 -8.184878 0.7610595 19.59417 -1.384493 -2.333079 -18.60087 2.582146 -3.505738 -35.97997 12.53355 90.0198 23.88031 -9.295077 -0 0 31.52067 -17.75469 9.736519 9.234695 0.5136895 -19.6147 -7.12829 -91.05859 8.437253 37.52774 0 0 -7.846833 9.772002 13.79077 -4.828176
-517.8307 105.4177 3085.019 -2.888337 -6.104902 -27.17027 0.531908 -18.25481 -1.286025 -0 35.69715 -0 -7.288983 5.246678 -3.421954 -4.943082 8.215284 -9.619713 -0 11.2767 -0 0.7925883 -16.82475 16.26799 -0.4014361 -2.456821 9.1473 1.587509 14.0993 -8.185884 0.7516811 19.58408 -1.381852 -2.324958 -18.5846 2.569022 -3.488982 -35.98697 12.53931 90.0017 23.87753 -9.299408 -0 0 31.54322 -17.74023 9.74038 9.221363 0.521206 -19.63399 -7.141135 -91.07141 8.418874 37.54724 0 0 -7.872899 9.769373 13.78269 -4.818097
-519.9381 104.5142 3089.729 -2.277877 -5.348941 -26.6979 0.3490581 -22.37715 -2.415445 -0 26.10747 -0 -6.674536 3.652377 -3.660226 -5.171012 11.06355 -9.525568 -0 10.32454 -0 0.001245081 -18.88781 15.25638 -0.4035122 -2.462011 9.158314 1.589801 14.09886 -8.18719 0.7426963 19.57487 -1.379785 -2.317584 -18.56907 2.556648 -3.472511 -35.99404 12.54446 89.9845 23.88038 -9.303832 -0 0 31.56447 -17.72342 9.740213 9.206532 0.5281501 -19.65033 -7.152753 -91.08174 8.400355 37.56529 0 0 -7.897026 9.770517 13.77374 -4.813547
